<svg width="11" height="12" viewBox="0 0 11 12" fill="none" xmlns="http://www.w3.org/2000/svg">
<path d="M3.55469 9.90088C4.21543 10.282 4.98207 10.5 5.79963 10.5C8.28491 10.5 10.2998 8.48528 10.2998 6C10.2998 3.51472 8.28509 1.5 5.7998 1.5C3.31452 1.5 1.2998 3.51472 1.2998 6C1.2998 6.81756 1.51783 7.58419 1.8989 8.24494L1.90038 8.2475C1.93704 8.31107 1.95553 8.34313 1.96391 8.37343C1.97181 8.402 1.97401 8.4277 1.97199 8.45728C1.96982 8.48906 1.95911 8.52201 1.93715 8.58789L1.55273 9.74113L1.55225 9.74264C1.47114 9.98596 1.43059 10.1076 1.4595 10.1887C1.4847 10.2594 1.54065 10.3152 1.61133 10.3404C1.69221 10.3692 1.81333 10.3288 2.05558 10.2481L2.05859 10.247L3.21183 9.86255C3.27749 9.84066 3.31087 9.82956 3.3426 9.82739C3.37218 9.82537 3.39769 9.82804 3.42627 9.83594C3.45665 9.84433 3.48872 9.86283 3.55262 9.89969L3.55469 9.90088Z" stroke="#555555" stroke-width="1.2" stroke-linecap="round" stroke-linejoin="round"/>
</svg>
