<svg width="9" height="6" viewBox="0 0 9 6" fill="none" xmlns="http://www.w3.org/2000/svg">
<path d="M8.13545 0.56485C8.17769 0.523033 8.23519 0.499512 8.29517 0.499512C8.35516 0.499512 8.41266 0.523033 8.4549 0.56485L8.93183 1.03314C8.97533 1.07322 9 1.12918 9 1.18776C9 1.24633 8.97533 1.3023 8.93183 1.34238L4.79696 5.40232C4.73373 5.46448 4.64796 5.49943 4.55849 5.49951H4.44151C4.35204 5.49943 4.26627 5.46448 4.20304 5.40232L0.0681726 1.34238C0.0246745 1.3023 1.19209e-07 1.24633 1.19209e-07 1.18776C1.19209e-07 1.12918 0.0246745 1.07322 0.0681726 1.03314L0.5451 0.56485C0.587341 0.523033 0.644842 0.499512 0.704826 0.499512C0.764811 0.499512 0.822311 0.523033 0.864552 0.56485L4.5 4.13442L8.13545 0.56485Z" fill="#555555"/>
</svg>
