<svg width="8" height="14" viewBox="0 0 8 14" fill="none" xmlns="http://www.w3.org/2000/svg">
<path d="M7.89546 1.34486C7.96237 1.27915 8 1.18971 8 1.0964C8 1.00309 7.96237 0.913643 7.89546 0.847934L7.1462 0.106047C7.08207 0.0383832 6.99252 0 6.89881 0C6.80509 0 6.71555 0.0383832 6.65141 0.106047L0.155505 6.53807C0.0560575 6.63642 0.000123501 6.76984 0 6.90901V7.09099C0.000123501 7.23016 0.0560575 7.36358 0.155505 7.46193L6.65141 13.894C6.71555 13.9616 6.80509 14 6.89881 14C6.99252 14 7.08207 13.9616 7.1462 13.894L7.89546 13.1521C7.96237 13.0864 8 12.9969 8 12.9036C8 12.8103 7.96237 12.7208 7.89546 12.6551L2.18415 7L7.89546 1.34486Z" fill="#B5B5B5"/>
</svg>
