<svg width="38" height="38" viewBox="0 0 38 38" fill="none" xmlns="http://www.w3.org/2000/svg">
<g filter="url(#filter0_d_4346_1413)">
<circle cx="19" cy="18" r="18" fill="#C23785"/>
</g>
<g clip-path="url(#clip0_4346_1413)">
<path d="M19.0012 7.99992C21.7182 7.99992 22.0572 8.00992 23.1232 8.05992C24.1882 8.10992 24.9132 8.27692 25.5512 8.52492C26.2112 8.77892 26.7672 9.12292 27.3232 9.67792C27.8317 10.1778 28.2252 10.7825 28.4762 11.4499C28.7232 12.0869 28.8912 12.8129 28.9412 13.8779C28.9882 14.9439 29.0012 15.2829 29.0012 17.9999C29.0012 20.7169 28.9912 21.0559 28.9412 22.1219C28.8912 23.1869 28.7232 23.9119 28.4762 24.5499C28.2259 25.2177 27.8323 25.8225 27.3232 26.3219C26.8232 26.8302 26.2185 27.2237 25.5512 27.4749C24.9142 27.7219 24.1882 27.8899 23.1232 27.9399C22.0572 27.9869 21.7182 27.9999 19.0012 27.9999C16.2842 27.9999 15.9452 27.9899 14.8792 27.9399C13.8142 27.8899 13.0892 27.7219 12.4512 27.4749C11.7835 27.2244 11.1787 26.8309 10.6792 26.3219C10.1706 25.8221 9.77715 25.2174 9.52622 24.5499C9.27822 23.9129 9.11122 23.1869 9.06122 22.1219C9.01422 21.0559 9.00122 20.7169 9.00122 17.9999C9.00122 15.2829 9.01122 14.9439 9.06122 13.8779C9.11122 12.8119 9.27822 12.0879 9.52622 11.4499C9.77646 10.7821 10.17 10.1772 10.6792 9.67792C11.1789 9.16915 11.7836 8.77565 12.4512 8.52492C13.0892 8.27692 13.8132 8.10992 14.8792 8.05992C15.9452 8.01292 16.2842 7.99992 19.0012 7.99992ZM19.0012 12.9999C17.6751 12.9999 16.4034 13.5267 15.4657 14.4644C14.528 15.4021 14.0012 16.6738 14.0012 17.9999C14.0012 19.326 14.528 20.5978 15.4657 21.5355C16.4034 22.4731 17.6751 22.9999 19.0012 22.9999C20.3273 22.9999 21.5991 22.4731 22.5368 21.5355C23.4744 20.5978 24.0012 19.326 24.0012 17.9999C24.0012 16.6738 23.4744 15.4021 22.5368 14.4644C21.5991 13.5267 20.3273 12.9999 19.0012 12.9999ZM25.5012 12.7499C25.5012 12.4184 25.3695 12.1005 25.1351 11.866C24.9007 11.6316 24.5827 11.4999 24.2512 11.4999C23.9197 11.4999 23.6018 11.6316 23.3673 11.866C23.1329 12.1005 23.0012 12.4184 23.0012 12.7499C23.0012 13.0814 23.1329 13.3994 23.3673 13.6338C23.6018 13.8682 23.9197 13.9999 24.2512 13.9999C24.5827 13.9999 24.9007 13.8682 25.1351 13.6338C25.3695 13.3994 25.5012 13.0814 25.5012 12.7499ZM19.0012 14.9999C19.7969 14.9999 20.5599 15.316 21.1225 15.8786C21.6852 16.4412 22.0012 17.2043 22.0012 17.9999C22.0012 18.7956 21.6852 19.5586 21.1225 20.1212C20.5599 20.6839 19.7969 20.9999 19.0012 20.9999C18.2056 20.9999 17.4425 20.6839 16.8799 20.1212C16.3173 19.5586 16.0012 18.7956 16.0012 17.9999C16.0012 17.2043 16.3173 16.4412 16.8799 15.8786C17.4425 15.316 18.2056 14.9999 19.0012 14.9999Z" fill="white"/>
</g>
<defs>
<filter id="filter0_d_4346_1413" x="0" y="0" width="38" height="38" filterUnits="userSpaceOnUse" color-interpolation-filters="sRGB">
<feFlood flood-opacity="0" result="BackgroundImageFix"/>
<feColorMatrix in="SourceAlpha" type="matrix" values="0 0 0 0 0 0 0 0 0 0 0 0 0 0 0 0 0 0 127 0" result="hardAlpha"/>
<feOffset dy="1"/>
<feGaussianBlur stdDeviation="0.5"/>
<feColorMatrix type="matrix" values="0 0 0 0 0 0 0 0 0 0 0 0 0 0 0 0 0 0 0.1 0"/>
<feBlend mode="normal" in2="BackgroundImageFix" result="effect1_dropShadow_4346_1413"/>
<feBlend mode="normal" in="SourceGraphic" in2="effect1_dropShadow_4346_1413" result="shape"/>
</filter>
<clipPath id="clip0_4346_1413">
<rect width="24" height="24" fill="white" transform="translate(7.00122 5.99992)"/>
</clipPath>
</defs>
</svg>
