<svg width="42" height="40" viewBox="0 0 42 40" fill="none" xmlns="http://www.w3.org/2000/svg">
<g clip-path="url(#clip0_4767_3123)">
<path d="M21.0752 39.9918C32.1209 39.9918 41.0017 31.0378 40.9111 19.9925C40.8205 8.94717 31.7928 -0.00683594 20.7471 -0.00683594C9.70138 -0.00683594 0.820522 8.94717 0.911129 19.9925C1.00174 31.0378 10.0295 39.9918 21.0752 39.9918Z" fill="url(#paint0_linear_4767_3123)"/>
<path fill-rule="evenodd" clip-rule="evenodd" d="M9.96252 19.7813C15.7721 17.2412 19.6462 15.5666 21.5849 14.7575C27.1201 12.4474 28.271 12.0461 29.0231 12.0329C29.1885 12.0299 29.5588 12.0709 29.8 12.2654C30.0037 12.4295 30.0612 12.6513 30.0891 12.807C30.117 12.9626 30.1531 13.3172 30.129 13.5943C29.8539 16.7566 28.6145 24.4309 27.981 27.9728C27.713 29.4715 27.1651 29.974 26.631 30.0232C25.4705 30.13 24.5814 29.2556 23.4504 28.5183C21.6807 27.3644 20.6803 26.6462 18.9625 25.5202C16.9772 24.219 18.2514 23.5039 19.3671 22.3351C19.6591 22.0292 24.7383 17.3748 24.8338 16.9526C24.8458 16.8997 24.8557 16.7029 24.7379 16.599C24.6201 16.495 24.4478 16.5306 24.3235 16.5588C24.1472 16.5989 21.3504 18.4575 15.9331 22.1346C15.1394 22.6827 14.4186 22.9497 13.7707 22.9357C13.0565 22.9203 11.6797 22.532 10.6558 22.2001C9.39993 21.7929 8.4027 21.5777 8.48371 20.8863C8.52591 20.5261 9.01884 20.1578 9.96252 19.7813Z" fill="white"/>
</g>
<defs>
<linearGradient id="paint0_linear_4767_3123" x1="20.7471" y1="-0.00683594" x2="20.7471" y2="39.6952" gradientUnits="userSpaceOnUse">
<stop stop-color="#2AABEE"/>
<stop offset="1" stop-color="#229ED9"/>
</linearGradient>
<clipPath id="clip0_4767_3123">
<rect width="40" height="40" fill="white" transform="matrix(1 0 0.00820296 0.999966 0.74707 -0.00683594)"/>
</clipPath>
</defs>
</svg>
