<svg width="38" height="38" viewBox="0 0 38 38" fill="none" xmlns="http://www.w3.org/2000/svg">
<g filter="url(#filter0_d_4346_1408)">
<circle cx="19" cy="18" r="18" fill="#42C0F5"/>
</g>
<g clip-path="url(#clip0_4346_1408)">
<path d="M29.1633 11.6559C28.3998 11.9936 27.5902 12.2154 26.7613 12.3139C27.635 11.7914 28.289 10.9689 28.6013 9.99993C27.7813 10.4879 26.8823 10.8299 25.9453 11.0149C25.3159 10.3415 24.4816 9.89489 23.5722 9.74451C22.6628 9.59413 21.7292 9.74842 20.9165 10.1834C20.1039 10.6183 19.4577 11.3096 19.0784 12.1497C18.6991 12.9898 18.608 13.9317 18.8193 14.8289C17.1564 14.7456 15.5296 14.3134 14.0446 13.5606C12.5595 12.8077 11.2494 11.751 10.1993 10.4589C9.82756 11.0974 9.63223 11.8232 9.63327 12.5619C9.63327 14.0119 10.3713 15.2929 11.4933 16.0429C10.8293 16.022 10.1799 15.8427 9.59927 15.5199V15.5719C9.59947 16.5376 9.93364 17.4735 10.5451 18.221C11.1566 18.9684 12.0078 19.4814 12.9543 19.6729C12.3379 19.84 11.6916 19.8646 11.0643 19.7449C11.3311 20.5762 11.8513 21.3031 12.5519 21.824C13.2525 22.3449 14.0984 22.6337 14.9713 22.6499C14.1038 23.3312 13.1105 23.8349 12.0482 24.1321C10.9859 24.4293 9.8754 24.5142 8.78027 24.3819C10.692 25.6114 12.9174 26.264 15.1903 26.2619C22.8833 26.2619 27.0903 19.8889 27.0903 14.3619C27.0903 14.1819 27.0853 13.9999 27.0773 13.8219C27.8961 13.2301 28.6029 12.4969 29.1643 11.6569L29.1633 11.6559Z" fill="white"/>
</g>
<defs>
<filter id="filter0_d_4346_1408" x="0" y="0" width="38" height="38" filterUnits="userSpaceOnUse" color-interpolation-filters="sRGB">
<feFlood flood-opacity="0" result="BackgroundImageFix"/>
<feColorMatrix in="SourceAlpha" type="matrix" values="0 0 0 0 0 0 0 0 0 0 0 0 0 0 0 0 0 0 127 0" result="hardAlpha"/>
<feOffset dy="1"/>
<feGaussianBlur stdDeviation="0.5"/>
<feColorMatrix type="matrix" values="0 0 0 0 0 0 0 0 0 0 0 0 0 0 0 0 0 0 0.1 0"/>
<feBlend mode="normal" in2="BackgroundImageFix" result="effect1_dropShadow_4346_1408"/>
<feBlend mode="normal" in="SourceGraphic" in2="effect1_dropShadow_4346_1408" result="shape"/>
</filter>
<clipPath id="clip0_4346_1408">
<rect width="24" height="24" fill="white" transform="translate(7.00122 5.99992)"/>
</clipPath>
</defs>
</svg>
