<svg width="38" height="38" viewBox="0 0 38 38" fill="none" xmlns="http://www.w3.org/2000/svg">
<g filter="url(#filter0_d_4346_1418)">
<circle cx="19" cy="18" r="18" fill="#EF5043"/>
</g>
<g clip-path="url(#clip0_4346_1418)">
<path d="M28.5447 12.4979C29.0017 14.2799 29.0017 17.9999 29.0017 17.9999C29.0017 17.9999 29.0017 21.7199 28.5447 23.5019C28.2907 24.4869 27.5477 25.2619 26.6067 25.5239C24.8977 25.9999 19.0017 25.9999 19.0017 25.9999C19.0017 25.9999 13.1087 25.9999 11.3967 25.5239C10.4517 25.2579 9.70971 24.4839 9.45871 23.5019C9.00171 21.7199 9.00171 17.9999 9.00171 17.9999C9.00171 17.9999 9.00171 14.2799 9.45871 12.4979C9.71271 11.5129 10.4557 10.7379 11.3967 10.4759C13.1087 9.99992 19.0017 9.99992 19.0017 9.99992C19.0017 9.99992 24.8977 9.99992 26.6067 10.4759C27.5517 10.7419 28.2937 11.5159 28.5447 12.4979ZM17.0017 21.4999L23.0017 17.9999L17.0017 14.4999V21.4999Z" fill="white"/>
</g>
<defs>
<filter id="filter0_d_4346_1418" x="0" y="0" width="38" height="38" filterUnits="userSpaceOnUse" color-interpolation-filters="sRGB">
<feFlood flood-opacity="0" result="BackgroundImageFix"/>
<feColorMatrix in="SourceAlpha" type="matrix" values="0 0 0 0 0 0 0 0 0 0 0 0 0 0 0 0 0 0 127 0" result="hardAlpha"/>
<feOffset dy="1"/>
<feGaussianBlur stdDeviation="0.5"/>
<feColorMatrix type="matrix" values="0 0 0 0 0 0 0 0 0 0 0 0 0 0 0 0 0 0 0.1 0"/>
<feBlend mode="normal" in2="BackgroundImageFix" result="effect1_dropShadow_4346_1418"/>
<feBlend mode="normal" in="SourceGraphic" in2="effect1_dropShadow_4346_1418" result="shape"/>
</filter>
<clipPath id="clip0_4346_1418">
<rect width="24" height="24" fill="white" transform="translate(7.00171 5.99992)"/>
</clipPath>
</defs>
</svg>
